<?xml version="1.0"?>
<svg viewBox="0, 0, 300, 120" xmlns="http://www.w3.org/2000/svg" xmlns:svg="http://www.w3.org/2000/svg" preserveAspectRatio="none">
 <!-- Created with SVG-edit - http://svg-edit.googlecode.com/ -->
 <g>
  <title>Layer 1</title>
  <path fill="#f8f8f8" stroke-width="0" stroke-dasharray="null" stroke-linejoin="null" stroke-linecap="null" d="m12.13946,1.46828c-6.08094,0 -10.97595,2.10034 -10.97595,4.70952l0,62.939982c0,2.609169 4.89501,4.709557 10.97595,4.709557l49.051512,0c-2.026752,0.995491 -3.148712,2.075989 -3.148712,3.211113c0,4.8498 20.318192,8.777641 45.402679,8.777641c25.084129,0 45.402672,-3.927841 45.402672,-8.777641c0,-1.135124 -1.122345,-2.215622 -3.149826,-3.211113l141.852844,0c6.080902,0 10.975922,-2.100388 10.975922,-4.709557l0,-62.939982c0,-2.60918 -4.89502,-4.70952 -10.975922,-4.70952l-275.411169,0zm53.88558,85.204114c-13.783279,0 -24.94669,2.299217 -24.94669,5.137756c0,2.839027 11.16341,5.137978 24.94669,5.137978c13.782959,0 24.946342,-2.29895 24.946342,-5.137978c0,-2.838539 -11.163383,-5.137756 -24.946342,-5.137756zm-24.94669,12.844849c-7.718189,0 -13.970011,1.724419 -13.970011,3.853325c0,2.128975 6.251822,3.85347 13.970011,3.85347c7.71793,0 13.969742,-1.724495 13.969742,-3.85347c0,-2.128906 -6.251823,-3.853325 -13.969742,-3.853325zm-23.94916,9.419479c-4.96158,0 -8.98034,0.957947 -8.98034,2.140556c0,1.183159 4.01876,2.140999 8.98034,2.140999c4.96224,0 8.980999,-0.95784 8.980999,-2.140999c0,-1.18261 -4.018759,-2.140556 -8.980999,-2.140556z" id="svg_6" stroke="#000000"/>
 </g>
</svg>